:SAMPLES-PER-SECOND 30
:FRAME-RANGE 1-2775
:FULLY-SPECIFIED
:DEGREES
2082
root  -45.352 38.6595 38.7458 -4.2921 42.531 -4.48132
RightUpLeg  -8.09431 -8.40265 0.794623
RightLeg  20.3507 -10.4342 -0.328293
RightFoot  -10.2957 -0.113879 4.81324
RightToes  -5.28216e-011 1.2921e-014 -6.02303e-014
Spine  10.0722 2.06763 15.0048
Spine1  -2.66058 4.76865 -4.95912
HEad  -6.90839 51.6939 -11.7571
LeftShoulder1  1.10563 0.605465 -32.083
LeftArm  15.5311 13.3476 -31.7025
LeftForeArm  3.48468 -10.1086 -15.1711
LeftHand  0.658761 -3.73601 -8.11684
RightShoulder  6.36587 7.56465 50.3887
RightArm  28.4799 -2.67366 13.9102
RightForeArm  5.30764 9.7375 15.3607
RightHand  0.4214 5.66672 4.09151
LeftUpLeg  -18.4854 3.66094 6.05516
LeftLeg  55.7859 0.096904 0.641772
LeftFoot  -0.620284 0.618087 -6.54425
LeftToes  -2.158e-010 -1.26819e-010 -1.05346e-011
2083
root  -44.7874 38.9006 39.9047 -3.47285 43.4152 -3.43591
RightUpLeg  -4.48804 -8.20429 0.102337
RightLeg  17.2778 -11.4249 0.301254
RightFoot  -11.0023 -0.0895366 5.00634
RightToes  -5.28216e-011 1.2921e-014 -6.02303e-014
Spine  9.78993 2.78741 14.6585
Spine1  -3.00848 5.40641 -6.56751
HEad  -8.23724 53.2566 -12.5886
LeftShoulder1  1.05533 0.747524 -32.2216
LeftArm  16.9122 14.5753 -31.8052
LeftForeArm  1.6752 -11.5427 -14.4184
LeftHand  0.668378 -3.69611 -8.27781
RightShoulder  6.47408 7.89163 49.7788
RightArm  30.7439 -2.71997 14.4325
RightForeArm  3.14405 11.6323 14.3458
RightHand  0.426119 5.67816 4.13594
LeftUpLeg  -20.5521 5.0945 3.62612
LeftLeg  49.1739 -0.173468 0.208022
LeftFoot  -2.14023 0.564289 -6.84882
LeftToes  -2.158e-010 -1.26819e-010 -1.05346e-011
2084
root  -44.2235 39.0828 41.0175 -2.91164 44.5974 -2.60706
RightUpLeg  -0.813429 -8.18439 -0.287763
RightLeg  14.1201 -12.3891 0.792849
RightFoot  -11.461 -0.0725573 5.03274
RightToes  -5.28216e-011 1.2921e-014 -6.02303e-014
Spine  9.47908 3.35265 13.8999
Spine1  -3.03012 5.80464 -7.48276
HEad  -9.61652 54.4849 -13.7247
LeftShoulder1  1.00037 0.906532 -32.4468
LeftArm  16.9965 15.5938 -32.0402
LeftForeArm  1.09412 -12.3642 -13.8785
LeftHand  0.656356 -3.82675 -8.00008
RightShoulder  6.617 8.30214 49.1086
RightArm  33.9434 -2.55657 14.6355
RightForeArm  0.199861 13.6203 13.1704
RightHand  0.41619 5.64451 4.04643
LeftUpLeg  -21.5957 7.41351 1.0581
LeftLeg  40.2087 0.0428294 0.408857
LeftFoot  -3.06065 0.530129 -7.06487
LeftToes  -2.158e-010 -1.26819e-010 -1.05346e-011
2085
root  -43.6513 39.196 42.0501 -2.18759 45.7638 -2.02527
RightUpLeg  2.35634 -7.82682 -0.351403
RightLeg  11.0086 -13.714 1.252
RightFoot  -11.8571 -0.0564005 5.35269
RightToes  -5.28216e-011 1.2921e-014 -6.02303e-014
Spine  8.93654 3.87065 13.1689
Spine1  -2.9283 6.17976 -8.33047
HEad  -11.0128 55.341 -14.8784
LeftShoulder1  0.966911 0.999445 -32.5379
LeftArm  16.9324 16.4792 -32.427
LeftForeArm  0.400539 -12.924 -13.4997
LeftHand  0.621769 -3.61816 -7.75716
RightShoulder  6.74387 8.55404 49.0031
RightArm  37.3516 -1.69598 13.9983
RightForeArm  -2.74101 15.106 12.2727
RightHand  0.393551 5.62627 3.81639
LeftUpLeg  -21.9953 11.2352 -1.85662
LeftLeg  29.1042 0.0372045 0.357501
LeftFoot  -2.85091 0.593014 -7.75168
LeftToes  -2.158e-010 -1.26819e-010 -1.05346e-011
2086
root  -43.043 39.2182 43.0439 -1.9731 47.2487 -2.04041
RightUpLeg  5.5149 -7.1858 0.124732
RightLeg  8.03728 -15.5728 1.7694
RightFoot  -12.2837 -0.0365521 5.69332
RightToes  -5.28216e-011 1.2921e-014 -6.02303e-014
Spine  8.34923 4.1651 12.5769
Spine1  -2.59743 6.39392 -8.73441
HEad  -12.0106 55.9455 -15.6939
LeftShoulder1  0.954879 1.04038 -32.6899
LeftArm  15.9598 17.0001 -32.7266
LeftForeArm  1.02207 -12.6384 -13.6304
LeftHand  0.616629 -3.6033 -7.705
RightShoulder  6.89017 8.94532 48.4885
RightArm  34.3001 -1.00064 13.8601
RightForeArm  0.318227 14.0587 12.8541
RightHand  0.3722 5.75656 3.54247
LeftUpLeg  -21.5544 16.877 -5.27181
LeftLeg  16.6598 -1.47023 -0.17578
LeftFoot  -1.59488 0.817009 -9.45608
LeftToes  -2.158e-010 -1.26819e-010 -1.05346e-011
